
<svg width="99px" height="99px" viewBox="0 0 99 99" version="1.1" xmlns="http://www.w3.org/2000/svg" xmlns:xlink="http://www.w3.org/1999/xlink">
    <!-- Generator: Sketch 47.1 (45422) - http://www.bohemiancoding.com/sketch -->
    <desc>Created with Sketch.</desc>
    <defs>
        <filter x="-7.7%" y="-5.5%" width="115.4%" height="115.4%" filterUnits="objectBoundingBox" id="filter-1">
            <feOffset dx="0" dy="2" in="SourceAlpha" result="shadowOffsetOuter1"></feOffset>
            <feGaussianBlur stdDeviation="2" in="shadowOffsetOuter1" result="shadowBlurOuter1"></feGaussianBlur>
            <feColorMatrix values="0 0 0 0 0   0 0 0 0 0   0 0 0 0 0  0 0 0 0.5 0" type="matrix" in="shadowBlurOuter1" result="shadowMatrixOuter1"></feColorMatrix>
            <feMerge>
                <feMergeNode in="shadowMatrixOuter1"></feMergeNode>
                <feMergeNode in="SourceGraphic"></feMergeNode>
            </feMerge>
        </filter>
    </defs>
    <g id="Page-1" stroke="none" stroke-width="1" fill="none" fill-rule="evenodd">
        <g id="play" filter="url(#filter-1)" transform="translate(4.000000, 2.000000)">
            <g id="Layer_1" transform="translate(4.000000, 4.000000)">
                <g id="Group" fill="#CE584C">
                    <path d="M41.0026178,0.253199061 C63.5060742,0.253199061 81.7488413,18.4955812 81.7488413,40.9984986 C81.7488413,63.50157 63.5060742,81.7436056 41.0026178,81.7436056 C18.498969,81.7436056 0.256394366,63.50157 0.256394366,40.9984986 C0.256394366,18.4956197 18.498969,0.253199061 41.0026178,0.253199061 Z" id="Shape"></path>
                </g>
                <path d="M31.1560347,53.8376967 L31.1560347,57.1957315 C31.1560347,59.0510488 33.094815,60.5537662 35.4885221,60.5537662 C36.4522723,60.5537662 37.3408366,60.3101531 38.0664404,59.8988441 L59.8912986,45.9043315 C62.01583,44.2591728 62.01583,41.5898995 59.8912986,39.9445099 L38.0664404,25.9501897 C37.3408366,25.5385343 36.4522723,25.2952676 35.4885221,25.2952676 C33.094815,25.2952676 31.1560347,26.7979465 31.1560347,28.6531099 L31.1560347,32.0111446 C31.1560347,32.9350498 31.1560347,52.9143305 31.1560347,53.8376967 Z" id="Shape" fill="#000000" fill-rule="nonzero" opacity="0.3"></path>
                <path d="M30.0011052,51.9128141 L30.0011052,55.2708488 C30.0011052,57.1261662 31.9398854,58.6288836 34.3335925,58.6288836 C35.2973427,58.6288836 36.185907,58.3852704 36.9115108,57.9739615 L58.736369,43.9794488 C60.8609005,42.3342901 60.8609005,39.6650169 58.736369,38.0196272 L36.9115108,24.025307 C36.185907,23.6136516 35.2973427,23.370385 34.3335925,23.370385 C31.9398854,23.370385 30.0011052,24.8730638 30.0011052,26.7282272 L30.0011052,30.086262 C30.0011052,31.0101671 30.0011052,50.9894479 30.0011052,51.9128141 Z" id="Shape" fill="#FFFFFF"></path>
            </g>
            <g id="Layer_2">
                <path d="M47.6324204,6.90631915 C25.2842145,6.90631915 7.16758596,25.022754 7.16758596,47.3703791 C7.16758596,60.5272753 13.4510779,72.2131081 23.1769255,79.6030826 C11.9479128,72.2925298 4.51747234,59.6378374 4.51747234,45.2405919 C4.51747234,22.6055617 22.8670221,4.25616681 45.5026332,4.25616681 C59.9010017,4.25616681 72.5564685,11.6871494 79.8670213,22.9165881 C72.4766596,13.1903532 60.7904396,6.90631915 47.6324204,6.90631915 Z" id="Shape" fill="#000000" fill-rule="nonzero" opacity="0.3"></path>
                <path d="M45.5026332,0.17812766 C20.4721345,0.17812766 0.181302979,20.4687655 0.181302979,45.4986834 C0.181302979,70.5284077 20.4721345,90.8188519 45.5026332,90.8188519 C70.5329383,90.8188519 90.824157,70.5284077 90.824157,45.4986834 C90.824157,20.4687655 70.5329383,0.17812766 45.5026332,0.17812766 Z M45.5026332,85.663063 C23.3196987,85.663063 5.33713064,67.6808821 5.33713064,45.4984898 C5.33713064,23.3162911 23.3196987,5.3339166 45.5026332,5.3339166 C67.6854128,5.3339166 85.6679421,23.3162911 85.6679421,45.4984898 C85.6679809,67.6808821 67.6854128,85.663063 45.5026332,85.663063 Z" id="Shape" fill="#FFFFFF"></path>
            </g>
        </g>
    </g>
</svg>